<svg xmlns="http://www.w3.org/2000/svg" xmlns:xlink="http://www.w3.org/1999/xlink" width="3780" zoomAndPan="magnify" viewBox="0 0 2835 1417.499962" height="1890" preserveAspectRatio="xMidYMid meet" version="1.0"><defs><clipPath id="777516a96d"><path d="M 0.363281 0.972656 L 1280 0.972656 L 1280 899.269531 L 0.363281 899.269531 Z M 0.363281 0.972656 " clip-rule="nonzero"/></clipPath><clipPath id="66e1b32a06"><rect x="0" width="1282" y="0" height="901"/></clipPath></defs><g transform="matrix(1, 0, 0, 1, 749, 220)"><g clip-path="url(#66e1b32a06)"><path fill="#ff8c0f" d="M 761.191406 309.371094 L 656.777344 280.816406 L 565.390625 246.417969 L 502.535156 215.789062 L 452.589844 177.265625 C 452.589844 177.265625 396.527344 109.519531 433.496094 87.371094 C 433.714844 87.226562 489.792969 50.371094 715.789062 121.566406 C 942.230469 192.898438 944.875 229.910156 939.457031 254.636719 C 934.039062 279.363281 761.191406 309.371094 761.191406 309.371094 Z M 319.210938 586.378906 C 214.257812 528.269531 142.632812 443.648438 127.503906 370.09375 L 101.367188 355.621094 L 54.691406 439.921875 C 18.613281 505.085938 103.113281 631.949219 249.203125 712.832031 C 395.292969 793.71875 547.640625 797.996094 583.71875 732.832031 L 630.390625 648.527344 L 604.253906 634.054688 C 533.90625 660.285156 424.171875 644.496094 319.214844 586.382812 Z M 272.890625 495.253906 L 282.234375 493.761719 L 341.683594 496.773438 C 357.898438 497.597656 378.25 509.308594 387.109375 522.941406 L 418.933594 571.84375 L 471.519531 584.1875 C 487.761719 585.003906 495.472656 564.816406 486.589844 551.171875 L 432.179688 458.445312 C 423.316406 444.808594 398.050781 428.8125 381.835938 427.984375 L 267.332031 420.273438 C 251.082031 419.457031 245.699219 437.597656 246.964844 455.390625 Z M 1171.078125 431.457031 L 1134.742188 375.902344 L 1117.515625 387.171875 C 1110.863281 438.460938 1065.941406 500.230469 996.777344 545.476562 C 927.613281 590.71875 853.019531 607.125 803.347656 592.679688 L 786.121094 603.945312 L 822.460938 659.5 C 850.550781 702.441406 955.015625 691.777344 1051.285156 628.800781 C 1147.554688 565.828125 1199.171875 474.398438 1171.082031 431.457031 Z M 916.824219 460.667969 L 877.910156 524.992188 C 873.34375 534.574219 882.472656 547.914062 893.644531 546.894531 L 928.460938 538.203125 L 949.417969 502.957031 C 955.136719 493.34375 968.816406 484.714844 979.976562 483.703125 L 1020 480.046875 L 1041.160156 451.882812 C 1046.886719 442.25 1039.160156 431.371094 1027.992188 432.390625 L 954.058594 437.132812 C 942.898438 438.144531 923.703125 451.003906 916.824219 460.664062 Z M 916.824219 460.667969 " fill-opacity="1" fill-rule="nonzero"/><g clip-path="url(#777516a96d)"><path fill="#feb83f" d="M 549.265625 161.761719 C 543.367188 159.039062 537.5625 156.242188 531.804688 153.378906 C 532.210938 151.5625 532.6875 149.722656 533.1875 147.90625 C 549.601562 87.898438 600.558594 46.589844 658.726562 39.617188 C 659.347656 39.542969 660.324219 40.964844 660.949219 40.898438 C 676.121094 39.269531 689.699219 39.25 705.320312 42.582031 C 705.902344 42.703125 708.199219 42.066406 708.777344 42.195312 C 711.023438 42.699219 713.289062 43.246094 715.535156 43.871094 C 794.609375 65.492188 841.195312 147.144531 819.550781 226.21875 C 819 228.296875 818.40625 230.351562 817.710938 232.359375 C 770.792969 228.726562 722.105469 220.390625 672.941406 206.9375 C 659.707031 203.304688 646.710938 199.390625 633.929688 195.1875 C 632.808594 194.816406 631.507812 190.0625 630.386719 189.6875 C 602.90625 180.53125 578.90625 171.597656 553.816406 160.007812 C 553.039062 159.648438 550.042969 162.125 549.265625 161.761719 Z M 618.738281 419.914062 C 763.449219 459.488281 912.324219 387.304688 973.601562 255.757812 C 977.121094 251.152344 979.835938 245.8125 981.460938 239.878906 C 988.457031 214.292969 972.550781 187.851562 946.179688 182.363281 C 923.984375 177.742188 901.273438 190.316406 893.453125 211.597656 C 892.277344 214.796875 891.476562 218.023438 891.019531 221.238281 C 888.898438 236.210938 876.238281 247.445312 861.121094 247.148438 C 847.675781 246.882812 834.046875 246.222656 820.269531 245.148438 C 773.339844 241.523438 724.660156 233.171875 675.5 219.726562 C 624.929688 205.898438 577.570312 187.703125 534.351562 166.171875 C 522.929688 160.484375 511.804688 154.566406 500.984375 148.433594 C 485.648438 139.742188 479.8125 120.992188 486.457031 104.664062 C 487.597656 101.863281 488.484375 98.894531 489.082031 95.789062 C 493.382812 73.398438 480.269531 50.820312 458.703125 43.429688 C 433.191406 34.691406 406.007812 49.359375 399.003906 74.964844 C 397.511719 80.414062 397.0625 85.902344 397.53125 91.21875 C 379.726562 238.101562 471.765625 379.71875 618.734375 419.914062 Z M 300.539062 620.097656 C 154.449219 539.214844 65.28125 420.78125 101.359375 355.617188 C 137.449219 290.433594 285.136719 303.171875 431.226562 384.054688 C 577.3125 464.941406 666.476562 583.335938 630.386719 648.527344 C 594.304688 713.691406 446.625 700.984375 300.535156 620.097656 Z M 481.585938 551.128906 L 422.109375 459.714844 C 413.246094 446.078125 392.898438 434.371094 376.683594 433.546875 L 267.902344 428.03125 C 251.652344 427.214844 245.695312 437.601562 254.582031 451.25 L 314.054688 542.664062 C 322.917969 556.300781 343.269531 568.007812 359.484375 568.835938 L 468.265625 574.351562 C 484.507812 575.164062 490.46875 564.78125 481.585938 551.132812 Z M 1134.738281 375.902344 C 1162.828125 418.84375 1107.578125 504.71875 1011.308594 567.695312 C 915.039062 630.667969 814.210938 646.886719 786.121094 603.941406 C 758.023438 560.988281 813.292969 475.113281 909.5625 412.140625 C 1005.832031 349.167969 1106.636719 332.941406 1134.738281 375.902344 Z M 1027.539062 435.214844 L 952.714844 442.039062 C 941.558594 443.050781 927.878906 451.679688 922.160156 461.292969 L 883.808594 525.785156 C 878.082031 535.421875 882.492188 542.390625 893.664062 541.371094 L 968.484375 534.546875 C 979.640625 533.535156 993.320312 524.90625 999.039062 515.292969 L 1037.394531 450.796875 C 1043.117188 441.164062 1038.710938 434.191406 1027.535156 435.214844 Z M 790.0625 727.789062 C 784.152344 693.09375 770.066406 668.671875 753.617188 668.671875 C 737.171875 668.671875 723.085938 693.09375 717.175781 727.789062 C 682.480469 733.699219 658.058594 747.785156 658.058594 764.230469 C 658.058594 780.679688 682.480469 794.765625 717.175781 800.675781 C 723.085938 835.371094 737.171875 859.792969 753.617188 859.792969 C 770.066406 859.792969 784.152344 835.371094 790.0625 800.675781 C 824.753906 794.765625 849.175781 780.679688 849.175781 764.230469 C 849.175781 747.785156 824.753906 733.699219 790.0625 727.789062 Z M 645.398438 828.257812 C 642.222656 809.609375 634.652344 796.480469 625.8125 796.480469 C 616.972656 796.480469 609.402344 809.605469 606.222656 828.257812 C 587.578125 831.433594 574.449219 839.003906 574.449219 847.84375 C 574.449219 856.683594 587.574219 864.253906 606.222656 867.429688 C 609.402344 886.082031 616.972656 899.207031 625.8125 899.207031 C 634.652344 899.207031 642.222656 886.082031 645.398438 867.429688 C 664.046875 864.253906 677.175781 856.683594 677.175781 847.84375 C 677.175781 839.003906 664.046875 831.433594 645.398438 828.257812 Z M 1215.4375 114.726562 C 1215.4375 102.070312 1196.644531 91.230469 1169.945312 86.683594 C 1165.394531 59.980469 1154.554688 41.1875 1141.898438 41.1875 C 1129.242188 41.1875 1118.398438 59.980469 1113.851562 86.683594 C 1087.152344 91.230469 1068.355469 102.070312 1068.355469 114.726562 C 1068.355469 127.382812 1087.152344 138.226562 1113.851562 142.773438 C 1118.398438 169.476562 1129.242188 188.269531 1141.898438 188.269531 C 1154.554688 188.269531 1165.394531 169.476562 1169.945312 142.773438 C 1196.640625 138.226562 1215.4375 127.382812 1215.4375 114.726562 Z M 1255.332031 164 C 1252.886719 149.648438 1247.0625 139.546875 1240.257812 139.546875 C 1233.453125 139.546875 1227.628906 149.652344 1225.179688 164 C 1210.828125 166.445312 1200.730469 172.273438 1200.730469 179.078125 C 1200.730469 185.878906 1210.828125 191.707031 1225.179688 194.152344 C 1227.625 208.503906 1233.453125 218.605469 1240.257812 218.605469 C 1247.0625 218.605469 1252.886719 208.5 1255.332031 194.152344 C 1269.683594 191.707031 1279.785156 185.878906 1279.785156 179.078125 C 1279.785156 172.273438 1269.683594 166.445312 1255.332031 164 Z M 110.738281 102.558594 C 115.285156 129.261719 126.128906 148.054688 138.785156 148.054688 C 151.441406 148.054688 162.28125 129.261719 166.832031 102.558594 C 193.527344 98.011719 212.324219 87.171875 212.324219 74.515625 C 212.324219 61.859375 193.53125 51.015625 166.832031 46.46875 C 162.28125 19.765625 151.441406 0.972656 138.785156 0.972656 C 126.125 0.972656 115.285156 19.765625 110.738281 46.46875 C 84.039062 51.015625 65.242188 61.859375 65.242188 74.515625 C 65.242188 87.171875 84.039062 98.011719 110.738281 102.558594 Z M 55.496094 123.789062 C 53.050781 109.4375 47.226562 99.335938 40.421875 99.335938 C 33.617188 99.335938 27.792969 109.4375 25.347656 123.789062 C 10.996094 126.234375 0.894531 132.058594 0.894531 138.863281 C 0.894531 145.667969 10.996094 151.492188 25.347656 153.9375 C 27.792969 168.289062 33.617188 178.390625 40.421875 178.390625 C 47.226562 178.390625 53.050781 168.289062 55.496094 153.9375 C 69.847656 151.492188 79.949219 145.667969 79.949219 138.863281 C 79.949219 132.058594 69.847656 126.234375 55.496094 123.789062 Z M 55.496094 123.789062 " fill-opacity="1" fill-rule="nonzero"/></g><path fill="#e40e24" d="M 726.167969 322.042969 C 726.167969 322.042969 738.527344 285.957031 712.011719 265.203125 C 712.011719 265.203125 727.675781 299.734375 707.769531 313.84375 C 707.769531 313.84375 682.253906 306.40625 658.992188 325.511719 C 635.726562 344.621094 612.855469 363.195312 598.214844 355.488281 C 583.570312 347.777344 574.800781 327.546875 592.703125 318.515625 C 610.601562 309.488281 645.480469 305.785156 652.3125 296.15625 C 659.148438 286.527344 651.101562 257.890625 621.628906 253.640625 C 592.15625 249.390625 591.257812 247.816406 591.257812 247.816406 L 602.4375 242.761719 L 615.023438 241.390625 C 615.023438 241.390625 625.960938 246.183594 627.976562 244.84375 C 629.992188 243.503906 622.191406 240.480469 622.191406 240.480469 C 622.191406 240.480469 638.925781 236.789062 638.929688 234.511719 C 638.929688 232.234375 633.496094 231.234375 633.496094 231.234375 L 587.574219 239.542969 L 617.449219 219.84375 C 617.449219 219.84375 618.625 215.976562 615.027344 214.226562 C 611.425781 212.480469 597.503906 221.257812 597.503906 221.257812 C 597.503906 221.257812 598.660156 214.449219 595.144531 214.683594 C 591.628906 214.917969 593.308594 225.996094 593.308594 225.996094 L 572.207031 236.492188 C 572.207031 236.492188 558.152344 235.144531 555.230469 239.457031 C 552.3125 243.773438 536.410156 241.703125 536.410156 241.703125 L 535.359375 241.382812 C 535.359375 241.382812 527.996094 237.675781 526.695312 241.183594 C 525.394531 244.695312 531.226562 251.183594 533.675781 251.441406 C 536.121094 251.699219 540.386719 252.019531 540.386719 252.019531 C 540.386719 252.019531 540.742188 255.378906 544.375 255.511719 C 548.007812 255.640625 578.179688 262.871094 583.378906 260.875 C 588.582031 258.878906 621.839844 271.800781 623.335938 279.71875 C 624.828125 287.636719 571.085938 296.007812 569.605469 300.109375 C 569.605469 300.109375 547.550781 288.84375 545.089844 314.28125 L 526.886719 306.953125 C 526.886719 306.953125 528.789062 300.703125 531.617188 298.957031 C 534.441406 297.214844 536.433594 292.941406 524.53125 287.53125 C 524.53125 287.53125 530.890625 293.042969 526.363281 297.359375 C 526.363281 297.359375 527.835938 290.976562 512.46875 287.925781 C 512.46875 287.925781 521.941406 292.273438 520.339844 298.289062 C 520.339844 298.289062 514.59375 293.777344 507.625 293.285156 C 507.625 293.285156 515.246094 299.179688 516.636719 303.667969 C 518.023438 308.15625 518.847656 309.222656 518.847656 309.222656 C 518.847656 309.222656 520.085938 314.96875 522.035156 316.859375 C 523.984375 318.753906 523.039062 319.605469 523.039062 319.605469 C 523.039062 319.605469 528.453125 321.414062 524.246094 314.117188 L 526.351562 312.480469 L 541.203125 322.53125 C 541.203125 322.53125 540.945312 333.1875 548.113281 338.296875 C 548.113281 338.296875 531.144531 338.988281 528.296875 335.519531 C 525.449219 332.050781 534.082031 323.292969 516.488281 319.242188 C 516.488281 319.242188 526.152344 324.457031 522.300781 328.816406 C 518.449219 333.171875 519.652344 321.664062 506.167969 323.742188 C 506.167969 323.742188 516.742188 327.449219 518.445312 333.167969 C 518.171875 333.011719 508.449219 327.460938 504.707031 333.058594 C 504.707031 333.058594 513.359375 331.785156 518.367188 337.214844 C 523.371094 342.640625 535.195312 349.816406 533.703125 352.453125 C 533.703125 352.453125 539.910156 348.648438 532.230469 343.710938 L 553.230469 348.636719 C 553.230469 348.636719 565.054688 372.402344 587.4375 378.074219 C 609.816406 383.746094 622.125 379.519531 622.125 379.519531 C 622.125 379.519531 614.929688 390.34375 613.949219 390.535156 C 612.972656 390.726562 606.386719 388.230469 606.386719 388.230469 C 606.386719 388.230469 596.175781 376.507812 587.242188 385.496094 C 587.242188 385.496094 596.449219 383.910156 600.480469 389.527344 C 600.480469 389.527344 588.246094 388.242188 588.535156 394.835938 C 588.535156 394.835938 596.394531 390.882812 603.570312 393.71875 C 603.570312 393.71875 596.238281 394.417969 598.496094 399.820312 C 598.496094 399.820312 603.96875 394.65625 612.601562 398.742188 C 612.601562 398.742188 625.855469 393.667969 630.421875 399.773438 C 630.421875 399.773438 635.429688 394.628906 620.523438 393.832031 C 620.523438 393.832031 641.59375 382.679688 640.667969 380.445312 C 639.738281 378.214844 636.09375 376.613281 636.09375 376.613281 L 638.109375 375.277344 C 638.109375 375.277344 644.449219 381.597656 648.25 381.941406 C 652.050781 382.28125 664.261719 380.628906 664.261719 380.628906 L 662.660156 397.21875 C 662.660156 397.21875 641.367188 387.976562 639.917969 401.035156 C 639.917969 401.035156 644.75 394.210938 653.617188 399.019531 C 653.617188 399.019531 641.742188 401.09375 648.492188 409.816406 C 648.457031 409.605469 647.175781 401.09375 659.003906 402.449219 C 659.003906 402.449219 651.761719 405.125 659.453125 411.53125 C 659.453125 411.53125 659.019531 401.640625 669.351562 403.15625 C 669.351562 403.15625 677.414062 395.527344 685.140625 398.042969 C 685.140625 398.042969 680.273438 389.890625 672.199219 396.054688 L 676.761719 379.554688 C 676.761719 379.554688 707.769531 399.886719 728.027344 391.410156 C 748.28125 382.9375 765.726562 342.21875 726.171875 322.050781 Z M 703.453125 369.953125 C 692.015625 366.46875 685.035156 356.113281 687.863281 346.820312 C 690.691406 337.519531 702.257812 332.808594 713.695312 336.289062 C 725.136719 339.769531 732.117188 350.125 729.285156 359.421875 C 726.457031 368.722656 714.894531 373.433594 703.457031 369.953125 Z M 703.453125 369.953125 " fill-opacity="1" fill-rule="nonzero"/><path fill="#f9d6a2" d="M 655.460938 102.386719 C 669.121094 109.503906 678.332031 122.707031 678.332031 137.867188 C 678.332031 160.148438 658.46875 178.246094 633.714844 178.878906 C 633.535156 184.433594 633.617188 189.882812 633.933594 195.1875 C 604.382812 185.488281 576.074219 174.257812 549.265625 161.761719 C 571.148438 100.105469 615.609375 62.476562 658.726562 39.617188 C 675.042969 37.65625 691.933594 38.398438 708.777344 42.195312 C 684.265625 61.621094 667.128906 82.015625 655.457031 102.386719 Z M 449.980469 54.34375 C 453.070312 54.375 455 54.714844 455 54.714844 C 455 54.714844 453.953125 47.929688 449.980469 54.34375 Z M 424.292969 173.386719 C 426.9375 175.847656 429.921875 177.265625 433.089844 177.265625 C 443.859375 177.265625 452.589844 161.242188 452.589844 141.472656 C 452.589844 122.113281 444.207031 106.382812 433.75 105.738281 C 441.703125 73.183594 446.789062 59.496094 449.980469 54.34375 C 439.683594 54.230469 416.347656 57.519531 407.222656 88.160156 C 395.359375 127.992188 401.566406 276.824219 531.804688 368.832031 C 531.804688 368.832031 431.011719 270.949219 424.292969 173.386719 Z M 459.976562 226.71875 C 464.109375 226.71875 467.460938 219.660156 467.460938 210.953125 C 467.460938 202.246094 464.109375 195.1875 459.976562 195.1875 C 455.839844 195.1875 452.492188 202.246094 452.492188 210.953125 C 452.492188 219.660156 455.839844 226.71875 459.976562 226.71875 Z M 717.261719 119.378906 C 712.578125 119.378906 708.777344 125.582031 708.777344 133.234375 C 708.777344 140.882812 712.578125 147.085938 717.261719 147.085938 C 721.949219 147.085938 725.746094 140.882812 725.746094 133.234375 C 725.746094 125.582031 721.949219 119.378906 717.261719 119.378906 Z M 331.59375 355.714844 C 326.445312 353.570312 320.171875 351 312.820312 348.449219 C 305.46875 345.910156 297.125 343.085938 287.824219 340.617188 C 269.25 335.648438 246.992188 331.246094 222.394531 330.480469 C 216.238281 330.347656 209.953125 330.359375 203.550781 330.84375 C 200.351562 330.992188 197.121094 331.402344 193.875 331.710938 C 190.621094 332.179688 187.359375 332.617188 184.078125 333.304688 C 171.003906 335.785156 157.449219 340.308594 145.316406 348.925781 C 139.328125 353.273438 133.828125 358.78125 129.621094 365.277344 L 129.21875 365.878906 L 129.015625 366.175781 L 128.917969 366.328125 L 128.597656 366.867188 L 128.027344 367.894531 L 126.886719 369.953125 C 126.0625 371.589844 125.09375 373.769531 124.378906 375.601562 C 123.089844 379.234375 122.027344 382.949219 121.503906 386.683594 C 120.308594 394.144531 120.648438 401.523438 121.90625 408.371094 C 123.152344 415.238281 125.214844 421.640625 127.777344 427.566406 C 132.84375 439.472656 139.558594 449.605469 146.46875 458.546875 C 153.449219 467.453125 160.742188 475.117188 167.765625 481.792969 C 174.796875 488.46875 181.648438 494.066406 187.816406 498.84375 C 193.933594 503.683594 199.59375 507.460938 204.210938 510.582031 C 208.84375 513.6875 212.621094 515.925781 215.175781 517.460938 C 217.753906 518.960938 219.132812 519.761719 219.132812 519.761719 C 219.132812 519.761719 214.703125 515.230469 206.949219 507.292969 C 203.121094 503.3125 198.539062 498.4375 193.402344 492.800781 C 188.300781 487.128906 182.71875 480.613281 176.941406 473.359375 C 171.179688 466.101562 165.242188 458.054688 159.71875 449.242188 C 154.222656 440.433594 149.09375 430.816406 145.550781 420.65625 C 143.816406 415.578125 142.421875 410.394531 141.765625 405.230469 C 141.125 400.070312 141.171875 394.972656 142.0625 390.191406 C 143.800781 380.613281 149.457031 372.367188 157.933594 366.328125 C 166.347656 360.175781 177.1875 356.210938 188.34375 353.6875 C 199.523438 351.109375 211.160156 350.027344 222.484375 349.488281 C 245.230469 348.671875 266.902344 350.546875 285.433594 352.785156 C 294.710938 353.921875 303.222656 355.191406 310.789062 356.375 C 318.316406 357.695312 324.941406 358.765625 330.367188 359.785156 C 335.816406 360.808594 340.097656 361.609375 343.015625 362.15625 C 345.953125 362.691406 347.515625 362.972656 347.515625 362.972656 C 347.515625 362.972656 346.085938 362.285156 343.398438 360.988281 C 340.699219 359.730469 336.757812 357.835938 331.59375 355.710938 Z M 927.488281 591.058594 C 925.558594 591.265625 922.730469 591.570312 919.125 591.953125 C 911.960938 592.679688 901.789062 593.742188 889.855469 594.105469 C 883.894531 594.28125 877.488281 594.261719 870.902344 593.777344 C 864.335938 593.289062 857.542969 592.316406 851.210938 590.429688 C 848.0625 589.453125 845.019531 588.320312 842.324219 586.855469 C 839.636719 585.378906 837.296875 583.648438 835.425781 581.730469 C 831.722656 577.871094 829.832031 573 829.71875 567.003906 C 829.503906 561.027344 831.179688 554.21875 833.734375 547.601562 C 836.277344 540.960938 839.761719 534.464844 843.425781 528.269531 C 850.933594 515.917969 859.476562 504.855469 867.085938 495.503906 C 870.886719 490.8125 874.539062 486.601562 877.769531 482.820312 C 881.0625 479.0625 883.933594 475.789062 886.296875 473.089844 C 888.699219 470.367188 890.582031 468.230469 891.867188 466.773438 C 893.144531 465.285156 893.824219 464.492188 893.824219 464.492188 C 893.824219 464.492188 892.886719 464.945312 891.121094 465.796875 C 889.378906 466.675781 886.800781 467.929688 883.609375 469.742188 C 877.230469 473.3125 868.332031 478.820312 858.414062 486.640625 C 848.53125 494.480469 837.574219 504.59375 827.707031 517.578125 C 825.257812 520.847656 822.867188 524.261719 820.664062 527.941406 C 818.421875 531.582031 816.3125 535.433594 814.523438 539.574219 C 810.847656 547.75 808.09375 557.109375 808.234375 567.546875 C 808.371094 572.734375 809.386719 578.171875 811.519531 583.273438 L 811.710938 583.753906 L 811.804688 583.996094 L 811.855469 584.113281 L 812.097656 584.636719 L 812.441406 585.320312 L 813.125 586.683594 C 813.742188 587.8125 814.699219 589.375 815.507812 590.539062 C 817.132812 592.769531 818.910156 594.882812 820.890625 596.6875 C 824.800781 600.378906 829.238281 603.082031 833.667969 605.003906 C 838.101562 606.941406 842.527344 608.21875 846.84375 608.988281 C 855.476562 610.609375 863.597656 610.5625 871.078125 609.964844 C 878.5625 609.308594 885.417969 607.988281 891.609375 606.445312 C 903.992188 603.308594 913.683594 599.230469 920.300781 596.113281 C 926.902344 592.941406 930.480469 590.765625 930.480469 590.765625 C 930.480469 590.765625 929.441406 590.867188 927.488281 591.0625 Z M 927.488281 591.058594 " fill-opacity="1" fill-rule="nonzero"/><path fill="#b0050d" d="M 270.253906 212.113281 C 259.09375 212.113281 250.011719 221.191406 250.011719 232.355469 C 250.011719 243.519531 259.09375 252.597656 270.253906 252.597656 C 281.417969 252.597656 290.496094 243.519531 290.496094 232.355469 C 290.496094 221.191406 281.417969 212.113281 270.253906 212.113281 Z M 270.253906 240.652344 C 265.679688 240.652344 261.957031 236.929688 261.957031 232.355469 C 261.957031 227.78125 265.679688 224.058594 270.253906 224.058594 C 274.832031 224.058594 278.550781 227.78125 278.550781 232.355469 C 278.550781 236.929688 274.832031 240.652344 270.253906 240.652344 Z M 278.214844 93.335938 C 259.996094 93.335938 245.171875 108.160156 245.171875 126.382812 C 245.171875 144.601562 259.996094 159.425781 278.214844 159.425781 C 296.4375 159.425781 311.265625 144.601562 311.265625 126.382812 C 311.265625 108.160156 296.441406 93.335938 278.214844 93.335938 Z M 278.214844 147.484375 C 266.582031 147.484375 257.113281 138.019531 257.113281 126.382812 C 257.113281 114.75 266.582031 105.28125 278.214844 105.28125 C 289.851562 105.28125 299.320312 114.75 299.320312 126.382812 C 299.320312 138.019531 289.851562 147.484375 278.214844 147.484375 Z M 125.324219 227.117188 C 111.054688 227.117188 99.445312 238.726562 99.445312 252.996094 C 99.445312 267.265625 111.054688 278.875 125.324219 278.875 C 139.59375 278.875 151.203125 267.265625 151.203125 252.996094 C 151.203125 238.726562 139.59375 227.117188 125.324219 227.117188 Z M 125.324219 266.933594 C 117.640625 266.933594 111.390625 260.683594 111.390625 253 C 111.390625 245.316406 117.640625 239.066406 125.324219 239.066406 C 133.007812 239.066406 139.261719 245.316406 139.261719 253 C 139.261719 260.683594 133.007812 266.933594 125.324219 266.933594 Z M 1115.144531 220.191406 C 1104.453125 220.191406 1095.757812 228.890625 1095.757812 239.582031 C 1095.757812 250.273438 1104.457031 258.96875 1115.144531 258.96875 C 1125.835938 258.96875 1134.535156 250.269531 1134.535156 239.582031 C 1134.535156 228.890625 1125.835938 220.191406 1115.144531 220.191406 Z M 1115.144531 247.027344 C 1111.039062 247.027344 1107.703125 243.6875 1107.703125 239.582031 C 1107.703125 235.476562 1111.042969 232.136719 1115.144531 232.136719 C 1119.25 232.136719 1122.589844 235.476562 1122.589844 239.582031 C 1122.589844 243.6875 1119.25 247.027344 1115.144531 247.027344 Z M 1034.714844 153.0625 C 1045.648438 153.0625 1054.542969 144.167969 1054.542969 133.234375 C 1054.542969 122.304688 1045.648438 113.410156 1034.714844 113.410156 C 1023.785156 113.410156 1014.890625 122.304688 1014.890625 133.234375 C 1014.890625 144.167969 1023.785156 153.0625 1034.714844 153.0625 Z M 1034.714844 125.355469 C 1039.0625 125.355469 1042.597656 128.890625 1042.597656 133.234375 C 1042.597656 137.582031 1039.0625 141.117188 1034.714844 141.117188 C 1030.371094 141.117188 1026.835938 137.582031 1026.835938 133.234375 C 1026.835938 128.890625 1030.371094 125.355469 1034.714844 125.355469 Z M 1039.902344 268.136719 C 1023.660156 268.136719 1010.445312 281.351562 1010.445312 297.589844 C 1010.445312 313.832031 1023.660156 327.046875 1039.902344 327.046875 C 1056.144531 327.046875 1069.355469 313.832031 1069.355469 297.589844 C 1069.355469 281.351562 1056.144531 268.136719 1039.902344 268.136719 Z M 1039.902344 315.101562 C 1030.246094 315.101562 1022.390625 307.246094 1022.390625 297.589844 C 1022.390625 287.933594 1030.246094 280.078125 1039.902344 280.078125 C 1049.558594 280.078125 1057.410156 287.933594 1057.410156 297.589844 C 1057.410156 307.246094 1049.558594 315.101562 1039.902344 315.101562 Z M 913.675781 78.125 C 901.117188 78.125 890.902344 88.339844 890.902344 100.898438 C 890.902344 113.460938 901.117188 123.675781 913.675781 123.675781 C 926.234375 123.675781 936.453125 113.460938 936.453125 100.898438 C 936.453125 88.339844 926.234375 78.125 913.675781 78.125 Z M 913.675781 111.730469 C 907.703125 111.730469 902.847656 106.871094 902.847656 100.898438 C 902.847656 94.929688 907.707031 90.070312 913.675781 90.070312 C 919.648438 90.070312 924.507812 94.929688 924.507812 100.898438 C 924.507812 106.871094 919.648438 111.730469 913.675781 111.730469 Z M 913.675781 111.730469 " fill-opacity="1" fill-rule="nonzero"/></g></g></svg>